<svg xmlns="http://www.w3.org/2000/svg" xmlns:xlink="http://www.w3.org/1999/xlink" width="100" zoomAndPan="magnify" viewBox="0 0 75 74.999997" height="100" preserveAspectRatio="xMidYMid meet" version="1.0"><defs><clipPath id="04cb0f1e14"><path d="M 22.5 46.332031 L 52.5 46.332031 L 52.5 57.582031 L 22.5 57.582031 Z M 22.5 46.332031 " clip-rule="nonzero"/></clipPath></defs><g clip-path="url(#04cb0f1e14)"><path fill="#ffffff" d="M 24.570312 46.636719 C 24.996094 46.792969 25.339844 47.148438 25.769531 47.261719 C 25.769531 47.261719 28.105469 47.496094 28.105469 47.496094 C 29.515625 47.734375 30.914062 48.125 32.355469 48.1875 C 33.765625 48.25 34.394531 47.484375 35.585938 47.46875 C 35.992188 47.464844 36.257812 47.472656 36.664062 47.367188 C 37.097656 47.25 37.363281 47.058594 37.859375 47.023438 C 38.316406 46.988281 38.828125 47.265625 39.238281 47.445312 C 40.105469 47.824219 41.480469 48.582031 42.410156 48.546875 C 43.160156 48.515625 43.109375 48.25 43.667969 47.972656 C 43.96875 47.820312 44.351562 47.765625 44.683594 47.71875 C 44.683594 47.71875 49.414062 47.0625 49.414062 47.0625 C 49.414062 47.0625 52.464844 46.691406 52.464844 46.691406 C 52.464844 46.691406 52.464844 54.355469 52.464844 54.355469 C 52.464844 54.496094 52.488281 54.730469 52.371094 54.835938 C 52.269531 54.921875 51.839844 54.972656 51.6875 55 C 51.6875 55 49.773438 55.296875 49.773438 55.296875 C 49.773438 55.296875 47.976562 55.523438 47.976562 55.523438 C 47.976562 55.523438 47.257812 55.765625 47.257812 55.765625 C 46.347656 56.035156 45.496094 56.113281 44.742188 55.425781 C 44.53125 55.230469 44.40625 55.070312 44.246094 54.832031 C 44.007812 54.480469 43.925781 54.335938 43.785156 53.933594 C 43.3125 54.21875 42.96875 54.453125 42.410156 54.535156 C 42.523438 55.007812 42.253906 55.472656 41.8125 55.664062 C 41.8125 55.664062 41.152344 55.847656 41.152344 55.847656 C 41.152344 55.847656 40.3125 56.320312 40.3125 56.320312 C 39.972656 56.46875 39.832031 56.421875 39.65625 56.511719 C 39.453125 56.613281 39.339844 56.808594 39.058594 56.917969 C 38.785156 57.027344 38.628906 56.9375 38.398438 57.03125 C 38.398438 57.03125 38.039062 57.226562 38.039062 57.226562 C 37.542969 57.472656 37.183594 57.515625 36.664062 57.347656 C 36.390625 57.90625 35.566406 57.941406 35.109375 57.605469 C 34.953125 57.492188 34.898438 57.390625 34.808594 57.226562 C 34.300781 57.277344 33.855469 57.019531 33.730469 56.507812 C 33.082031 56.667969 32.488281 56.4375 32.355469 55.730469 C 32.191406 55.730469 31.96875 55.742188 31.816406 55.691406 C 31.335938 55.542969 31.128906 55.035156 31.003906 54.59375 C 30.957031 54.425781 30.921875 54.140625 30.820312 54.019531 C 30.652344 53.8125 30.15625 53.699219 29.898438 53.574219 C 29.621094 54.40625 29.546875 55.238281 29.371094 56.089844 C 29.21875 56.851562 29.179688 57.308594 28.285156 57.285156 C 27.652344 57.273438 27.1875 57.007812 26.605469 56.835938 C 26.605469 56.835938 25.410156 56.546875 25.410156 56.546875 C 25.410156 56.546875 23.792969 56.097656 23.792969 56.097656 C 23.566406 56.03125 22.710938 55.800781 22.597656 55.640625 C 22.523438 55.535156 22.535156 55.320312 22.535156 55.191406 C 22.535156 55.191406 22.535156 46.332031 22.535156 46.332031 C 23.210938 46.421875 23.925781 46.398438 24.570312 46.636719 Z M 27.566406 47.96875 C 26.933594 47.886719 26.273438 47.949219 25.648438 47.789062 C 25.085938 47.648438 24.800781 47.335938 24.453125 47.183594 C 24.042969 47.007812 23.285156 46.933594 22.835938 46.933594 C 22.835938 46.933594 22.835938 54.714844 22.835938 54.714844 C 22.835938 54.839844 22.824219 55.054688 22.898438 55.160156 C 23.003906 55.316406 23.707031 55.5 23.914062 55.558594 C 23.914062 55.558594 25.410156 55.976562 25.410156 55.976562 C 25.410156 55.976562 27.085938 56.425781 27.085938 56.425781 C 27.410156 56.542969 27.824219 56.6875 28.164062 56.730469 C 28.285156 56.746094 28.496094 56.769531 28.597656 56.6875 C 28.714844 56.597656 28.777344 56.238281 28.808594 56.089844 C 28.808594 56.089844 29.097656 54.472656 29.097656 54.472656 C 29.238281 53.738281 29.367188 53.617188 29.53125 53.039062 C 29.84375 51.925781 30.367188 49.597656 30.378906 48.488281 C 30.378906 48.488281 27.566406 47.96875 27.566406 47.96875 Z M 50.308594 47.515625 C 50.308594 47.515625 46.300781 48.027344 46.300781 48.027344 C 46.300781 48.027344 44.382812 48.308594 44.382812 48.308594 C 44.828125 49.148438 44.898438 49.78125 45.058594 50.703125 C 45.25 51.800781 45.34375 52.515625 45.34375 53.636719 C 45.34375 53.636719 45.289062 54.355469 45.289062 54.355469 C 45.261719 54.742188 45.304688 54.679688 45.222656 55.132812 C 45.429688 55.25 45.644531 55.371094 45.882812 55.410156 C 46.527344 55.519531 47.253906 55.113281 47.855469 54.984375 C 47.855469 54.984375 49.710938 54.757812 49.710938 54.757812 C 49.710938 54.757812 52.226562 54.355469 52.226562 54.355469 C 52.226562 54.355469 52.226562 50.402344 52.226562 50.402344 C 52.226562 50.402344 52.164062 49.386719 52.164062 49.386719 C 52.164062 49.386719 52.164062 47.292969 52.164062 47.292969 C 52.164062 47.292969 50.308594 47.515625 50.308594 47.515625 Z M 44.804688 53.21875 C 44.800781 52.222656 44.59375 51.085938 44.40625 50.105469 C 44.347656 49.773438 44.214844 48.820312 43.898438 48.671875 C 43.679688 48.570312 43.523438 48.78125 43.308594 48.902344 C 43.0625 49.039062 42.6875 49.082031 42.410156 49.085938 C 41.414062 49.097656 40.417969 48.605469 39.535156 48.175781 C 39.085938 47.953125 38.351562 47.570312 37.859375 47.59375 C 37.464844 47.609375 37.082031 47.84375 36.664062 47.933594 C 36.664062 47.933594 34.925781 48.105469 34.925781 48.105469 C 34.597656 48.207031 34.054688 48.550781 33.730469 48.710938 C 33.367188 48.894531 32.976562 49.019531 32.59375 49.148438 C 32.65625 49.269531 32.699219 49.371094 32.804688 49.46875 C 33.132812 49.769531 33.976562 49.804688 34.386719 49.683594 C 34.386719 49.683594 35.347656 49.320312 35.347656 49.320312 C 35.582031 49.261719 35.707031 49.265625 35.945312 49.265625 C 36.425781 49.265625 36.875 49.226562 37.320312 49.441406 C 37.789062 49.664062 38.296875 50.324219 38.699219 50.699219 C 38.699219 50.699219 39.167969 51.125 39.167969 51.125 C 39.167969 51.125 40.015625 52.078125 40.015625 52.078125 C 40.015625 52.078125 41.273438 53.234375 41.273438 53.234375 C 41.273438 53.234375 41.992188 53.839844 41.992188 53.839844 C 42.683594 54.320312 43.375 53.296875 43.902344 53.382812 C 44.359375 53.453125 44.214844 54.023438 44.742188 54.472656 C 44.742188 54.472656 44.804688 53.21875 44.804688 53.21875 Z M 30.917969 48.609375 C 30.898438 49.386719 30.582031 50.984375 30.398438 51.78125 C 30.347656 52.003906 30.082031 52.855469 30.15625 53.019531 C 30.222656 53.164062 30.421875 53.203125 30.558594 53.246094 C 30.867188 53.355469 31.074219 53.441406 31.335938 53.644531 C 31.597656 53.84375 32.425781 54.464844 32.710938 54.515625 C 32.710938 54.515625 33.371094 54.472656 33.371094 54.472656 C 33.660156 54.46875 33.886719 54.476562 34.148438 54.617188 C 34.382812 54.742188 34.503906 54.917969 34.6875 54.957031 C 34.863281 55 34.996094 54.878906 35.285156 54.957031 C 35.691406 55.070312 35.914062 55.394531 36.082031 55.492188 C 36.265625 55.59375 36.683594 55.585938 36.902344 55.648438 C 37.65625 55.867188 38.226562 56.621094 39.058594 56.328125 C 39.058594 56.328125 39.058594 56.210938 39.058594 56.210938 C 39.058594 56.210938 37.921875 55.355469 37.921875 55.355469 C 37.808594 55.253906 37.617188 55.078125 37.691406 54.90625 C 37.824219 54.601562 38.199219 54.925781 38.339844 55.035156 C 38.726562 55.339844 39.375 55.9375 39.894531 55.875 C 40.058594 55.859375 40.382812 55.683594 40.554688 55.609375 C 40.554688 55.609375 40.554688 55.492188 40.554688 55.492188 C 39.921875 55.078125 39.191406 54.589844 38.785156 53.933594 C 38.679688 53.765625 38.507812 53.421875 38.542969 53.21875 C 38.570312 53.0625 38.703125 52.917969 38.871094 52.988281 C 39.09375 53.082031 39.023438 53.382812 39.285156 53.753906 C 39.617188 54.230469 40.214844 54.703125 40.734375 54.96875 C 40.914062 55.058594 41.191406 55.226562 41.390625 55.207031 C 41.859375 55.164062 42.027344 54.652344 41.734375 54.3125 C 41.734375 54.3125 39.714844 52.5 39.714844 52.5 C 39.714844 52.5 38.8125 51.484375 38.8125 51.484375 C 38.8125 51.484375 38.101562 50.824219 38.101562 50.824219 C 37.8125 50.519531 37.691406 50.308594 37.320312 50.050781 C 36.890625 49.75 35.839844 49.730469 35.347656 49.878906 C 34.761719 50.050781 34.605469 50.277344 33.910156 50.285156 C 33.3125 50.289062 32.710938 50.179688 32.316406 49.683594 C 32.191406 49.527344 32.054688 49.292969 32.085938 49.085938 C 32.101562 48.972656 32.179688 48.832031 32.234375 48.726562 C 32.234375 48.726562 30.917969 48.609375 30.917969 48.609375 Z M 32.292969 54.953125 C 32.292969 54.953125 31.636719 54.472656 31.636719 54.472656 C 31.566406 54.753906 31.84375 55.476562 32.292969 54.953125 Z M 32.929688 55.125 C 32.726562 55.3125 32.839844 56.066406 33.429688 56.007812 C 33.824219 55.96875 34.605469 55.699219 34.082031 55.207031 C 34.03125 55.160156 33.972656 55.121094 33.910156 55.089844 C 33.695312 54.984375 33.363281 55.003906 33.132812 55.03125 C 33.054688 55.058594 32.996094 55.058594 32.929688 55.125 Z M 34.648438 55.96875 C 34.648438 55.96875 34.40625 56.246094 34.40625 56.246094 C 34.347656 56.320312 34.292969 56.390625 34.339844 56.496094 C 34.46875 56.777344 34.90625 56.65625 35.105469 56.535156 C 35.257812 56.445312 35.613281 56.203125 35.644531 56.023438 C 35.714844 55.664062 35.234375 55.464844 34.945312 55.527344 C 34.746094 55.683594 34.789062 55.769531 34.648438 55.96875 Z M 36.113281 57.167969 C 36.484375 56.960938 36.667969 56.328125 36.246094 56.089844 C 36.011719 56.527344 35.761719 56.722656 35.347656 56.988281 C 35.347656 56.988281 35.347656 57.167969 35.347656 57.167969 C 35.558594 57.21875 35.914062 57.277344 36.113281 57.167969 Z M 37.023438 56.328125 C 37.03125 56.453125 37.011719 56.746094 37.082031 56.828125 C 37.230469 57.003906 37.660156 56.789062 37.800781 56.6875 C 37.800781 56.6875 37.023438 56.328125 37.023438 56.328125 Z M 37.023438 56.328125 " fill-opacity="1" fill-rule="nonzero"/></g><path fill="#f905db" d="M 9.5 -24.042969 L 65.492188 -24.042969 C 66.40625 -24.042969 67.324219 -24 68.234375 -23.910156 C 69.148438 -23.820312 70.054688 -23.683594 70.953125 -23.507812 C 71.851562 -23.328125 72.742188 -23.105469 73.617188 -22.839844 C 74.496094 -22.570312 75.359375 -22.265625 76.203125 -21.914062 C 77.050781 -21.5625 77.878906 -21.171875 78.6875 -20.738281 C 79.496094 -20.304688 80.28125 -19.835938 81.042969 -19.324219 C 81.808594 -18.816406 82.542969 -18.269531 83.25 -17.6875 C 83.960938 -17.105469 84.640625 -16.492188 85.289062 -15.84375 C 85.9375 -15.195312 86.550781 -14.515625 87.132812 -13.808594 C 87.714844 -13.097656 88.257812 -12.363281 88.769531 -11.601562 C 89.277344 -10.839844 89.75 -10.054688 90.179688 -9.246094 C 90.613281 -8.4375 91.003906 -7.609375 91.355469 -6.761719 C 91.707031 -5.914062 92.015625 -5.050781 92.28125 -4.175781 C 92.546875 -3.296875 92.769531 -2.410156 92.949219 -1.507812 C 93.128906 -0.609375 93.261719 0.296875 93.351562 1.207031 C 93.441406 2.121094 93.488281 3.035156 93.488281 3.953125 L 93.488281 59.945312 C 93.488281 60.859375 93.441406 61.777344 93.351562 62.6875 C 93.261719 63.601562 93.128906 64.507812 92.949219 65.40625 C 92.769531 66.304688 92.546875 67.195312 92.28125 68.070312 C 92.015625 68.949219 91.707031 69.8125 91.355469 70.65625 C 91.003906 71.503906 90.613281 72.332031 90.179688 73.140625 C 89.75 73.949219 89.277344 74.734375 88.769531 75.5 C 88.257812 76.261719 87.714844 76.996094 87.132812 77.703125 C 86.550781 78.414062 85.9375 79.09375 85.289062 79.742188 C 84.640625 80.390625 83.960938 81.003906 83.25 81.585938 C 82.542969 82.167969 81.808594 82.710938 81.042969 83.222656 C 80.28125 83.730469 79.496094 84.203125 78.6875 84.632812 C 77.878906 85.066406 77.050781 85.457031 76.203125 85.808594 C 75.359375 86.160156 74.496094 86.46875 73.617188 86.734375 C 72.742188 87 71.851562 87.222656 70.953125 87.402344 C 70.054688 87.582031 69.148438 87.714844 68.234375 87.804688 C 67.324219 87.894531 66.40625 87.941406 65.492188 87.941406 L 9.5 87.941406 C 8.582031 87.941406 7.667969 87.894531 6.753906 87.804688 C 5.84375 87.714844 4.9375 87.582031 4.039062 87.402344 C 3.136719 87.222656 2.25 87 1.371094 86.734375 C 0.496094 86.46875 -0.367188 86.160156 -1.214844 85.808594 C -2.0625 85.457031 -2.890625 85.066406 -3.699219 84.632812 C -4.507812 84.203125 -5.292969 83.730469 -6.054688 83.222656 C -6.816406 82.710938 -7.554688 82.167969 -8.261719 81.585938 C -8.96875 81.003906 -9.648438 80.390625 -10.296875 79.742188 C -10.945312 79.09375 -11.5625 78.414062 -12.140625 77.703125 C -12.722656 76.996094 -13.269531 76.261719 -13.777344 75.5 C -14.289062 74.734375 -14.757812 73.949219 -15.191406 73.140625 C -15.625 72.332031 -16.015625 71.503906 -16.367188 70.65625 C -16.71875 69.8125 -17.027344 68.949219 -17.292969 68.070312 C -17.558594 67.195312 -17.78125 66.304688 -17.960938 65.40625 C -18.136719 64.507812 -18.273438 63.601562 -18.363281 62.6875 C -18.453125 61.777344 -18.496094 60.859375 -18.496094 59.945312 L -18.496094 3.953125 C -18.496094 3.035156 -18.453125 2.121094 -18.363281 1.207031 C -18.273438 0.296875 -18.136719 -0.609375 -17.960938 -1.507812 C -17.78125 -2.410156 -17.558594 -3.296875 -17.292969 -4.175781 C -17.027344 -5.050781 -16.71875 -5.914062 -16.367188 -6.761719 C -16.015625 -7.609375 -15.625 -8.4375 -15.191406 -9.246094 C -14.757812 -10.054688 -14.289062 -10.839844 -13.777344 -11.601562 C -13.269531 -12.363281 -12.722656 -13.097656 -12.140625 -13.808594 C -11.5625 -14.515625 -10.945312 -15.195312 -10.296875 -15.84375 C -9.648438 -16.492188 -8.96875 -17.105469 -8.261719 -17.6875 C -7.554688 -18.269531 -6.816406 -18.816406 -6.054688 -19.324219 C -5.292969 -19.835938 -4.507812 -20.304688 -3.699219 -20.738281 C -2.890625 -21.171875 -2.0625 -21.5625 -1.214844 -21.914062 C -0.367188 -22.265625 0.496094 -22.570312 1.371094 -22.839844 C 2.25 -23.105469 3.136719 -23.328125 4.039062 -23.507812 C 4.9375 -23.683594 5.84375 -23.820312 6.753906 -23.910156 C 7.667969 -24 8.582031 -24.042969 9.5 -24.042969 Z M 9.5 -24.042969 " fill-opacity="1" fill-rule="nonzero"/><path fill="#ffffff" d="M 56.160156 22.617188 C 56.160156 23.226562 56.128906 23.835938 56.070312 24.445312 C 56.007812 25.054688 55.917969 25.65625 55.800781 26.257812 C 55.679688 26.855469 55.53125 27.449219 55.355469 28.035156 C 55.179688 28.617188 54.972656 29.195312 54.738281 29.757812 C 54.503906 30.324219 54.242188 30.875 53.957031 31.414062 C 53.667969 31.953125 53.351562 32.476562 53.011719 32.984375 C 52.675781 33.492188 52.308594 33.984375 51.921875 34.457031 C 51.535156 34.929688 51.125 35.382812 50.691406 35.8125 C 50.261719 36.246094 49.808594 36.65625 49.335938 37.042969 C 48.863281 37.429688 48.371094 37.796875 47.863281 38.136719 C 47.355469 38.472656 46.832031 38.789062 46.292969 39.078125 C 45.753906 39.363281 45.203125 39.625 44.636719 39.859375 C 44.074219 40.09375 43.496094 40.300781 42.914062 40.476562 C 42.328125 40.652344 41.734375 40.800781 41.136719 40.921875 C 40.535156 41.039062 39.933594 41.128906 39.324219 41.191406 C 38.714844 41.25 38.105469 41.28125 37.496094 41.28125 C 36.882812 41.28125 36.273438 41.25 35.664062 41.191406 C 35.058594 41.128906 34.453125 41.039062 33.855469 40.921875 C 33.253906 40.800781 32.660156 40.652344 32.078125 40.476562 C 31.492188 40.300781 30.917969 40.09375 30.351562 39.859375 C 29.789062 39.625 29.234375 39.363281 28.695312 39.078125 C 28.15625 38.789062 27.632812 38.472656 27.125 38.136719 C 26.617188 37.796875 26.128906 37.429688 25.65625 37.042969 C 25.183594 36.65625 24.730469 36.246094 24.296875 35.8125 C 23.867188 35.382812 23.457031 34.929688 23.066406 34.457031 C 22.679688 33.984375 22.316406 33.492188 21.976562 32.984375 C 21.636719 32.476562 21.324219 31.953125 21.035156 31.414062 C 20.746094 30.875 20.484375 30.324219 20.25 29.757812 C 20.019531 29.195312 19.8125 28.617188 19.632812 28.035156 C 19.457031 27.449219 19.308594 26.855469 19.191406 26.257812 C 19.070312 25.65625 18.980469 25.054688 18.921875 24.445312 C 18.859375 23.835938 18.832031 23.226562 18.832031 22.617188 C 18.832031 22.003906 18.859375 21.394531 18.921875 20.785156 C 18.980469 20.179688 19.070312 19.574219 19.191406 18.976562 C 19.308594 18.375 19.457031 17.785156 19.632812 17.199219 C 19.8125 16.613281 20.019531 16.039062 20.25 15.472656 C 20.484375 14.910156 20.746094 14.355469 21.035156 13.816406 C 21.324219 13.277344 21.636719 12.753906 21.976562 12.246094 C 22.316406 11.738281 22.679688 11.25 23.066406 10.777344 C 23.457031 10.304688 23.867188 9.851562 24.296875 9.417969 C 24.730469 8.988281 25.183594 8.578125 25.65625 8.1875 C 26.128906 7.800781 26.617188 7.4375 27.125 7.097656 C 27.632812 6.757812 28.15625 6.445312 28.695312 6.15625 C 29.234375 5.867188 29.789062 5.605469 30.351562 5.371094 C 30.917969 5.140625 31.492188 4.933594 32.078125 4.753906 C 32.660156 4.578125 33.253906 4.429688 33.855469 4.3125 C 34.453125 4.191406 35.058594 4.101562 35.664062 4.042969 C 36.273438 3.980469 36.882812 3.953125 37.496094 3.953125 C 38.105469 3.953125 38.714844 3.980469 39.324219 4.042969 C 39.933594 4.101562 40.535156 4.191406 41.136719 4.3125 C 41.734375 4.429688 42.328125 4.578125 42.914062 4.753906 C 43.496094 4.933594 44.074219 5.140625 44.636719 5.371094 C 45.203125 5.605469 45.753906 5.867188 46.292969 6.15625 C 46.832031 6.445312 47.355469 6.757812 47.863281 7.097656 C 48.371094 7.4375 48.863281 7.800781 49.335938 8.1875 C 49.808594 8.578125 50.261719 8.988281 50.691406 9.417969 C 51.125 9.851562 51.535156 10.304688 51.921875 10.777344 C 52.308594 11.25 52.675781 11.738281 53.011719 12.246094 C 53.351562 12.753906 53.667969 13.277344 53.957031 13.816406 C 54.242188 14.355469 54.503906 14.910156 54.738281 15.472656 C 54.972656 16.039062 55.179688 16.613281 55.355469 17.199219 C 55.53125 17.785156 55.679688 18.375 55.800781 18.976562 C 55.917969 19.574219 56.007812 20.179688 56.070312 20.785156 C 56.128906 21.394531 56.160156 22.003906 56.160156 22.617188 Z M 56.160156 22.617188 " fill-opacity="1" fill-rule="nonzero"/><path fill="#ffffff" d="M 69.90625 70.457031 C 69.976562 70.949219 69.714844 71.429688 69.253906 71.621094 C 63.648438 73.941406 55.390625 73.941406 42.160156 73.941406 L 32.828125 73.941406 C 19.601562 73.941406 11.34375 73.941406 5.738281 71.621094 C 5.277344 71.429688 5.011719 70.949219 5.082031 70.457031 C 7.085938 56.640625 20.832031 45.945312 37.496094 45.945312 C 54.15625 45.945312 67.90625 56.640625 69.90625 70.457031 Z M 69.90625 70.457031 " fill-opacity="1" fill-rule="evenodd"/></svg>