<svg xmlns="http://www.w3.org/2000/svg" xmlns:xlink="http://www.w3.org/1999/xlink" width="500" zoomAndPan="magnify" viewBox="0 0 375 374.999991" height="500" preserveAspectRatio="xMidYMid meet" version="1.0"><defs><g/></defs><g fill="#ffffff" fill-opacity="1"><g transform="translate(16.677052, 270.833126)"><g><path d="M 174.828125 -144.34375 C 176.742188 -150.5625 180.117188 -155.703125 184.953125 -159.765625 C 189.796875 -163.828125 195.445312 -166.484375 201.90625 -167.734375 C 208.363281 -168.992188 215 -168.609375 221.8125 -166.578125 L 177.15625 -22.40625 C 175.25 -16.550781 171.90625 -11.535156 167.125 -7.359375 C 164.726562 -5.203125 162.066406 -3.4375 159.140625 -2.0625 C 156.210938 -0.6875 153.132812 0 149.90625 0 C 146.5625 0 143.421875 -0.6875 140.484375 -2.0625 C 137.554688 -3.4375 134.898438 -5.203125 132.515625 -7.359375 C 127.734375 -11.535156 124.382812 -16.550781 122.46875 -22.40625 L 114.21875 -49.125 L 105.96875 -22.40625 C 104.0625 -16.550781 100.71875 -11.535156 95.9375 -7.359375 C 93.539062 -5.203125 90.878906 -3.4375 87.953125 -2.0625 C 85.023438 -0.6875 81.882812 0 78.53125 0 C 75.1875 0 72.078125 -0.6875 69.203125 -2.0625 C 66.335938 -3.4375 63.648438 -5.203125 61.140625 -7.359375 C 56.359375 -11.535156 53.070312 -16.550781 51.28125 -22.40625 L 6.640625 -166.578125 C 13.453125 -168.609375 20.082031 -168.992188 26.53125 -167.734375 C 32.988281 -166.484375 38.640625 -163.828125 43.484375 -159.765625 C 48.328125 -155.703125 51.703125 -150.5625 53.609375 -144.34375 L 78.53125 -55.953125 L 103.640625 -144.34375 C 105.554688 -150.5625 108.929688 -155.703125 113.765625 -159.765625 C 118.609375 -163.828125 124.257812 -166.484375 130.71875 -167.734375 C 137.175781 -168.992188 143.75 -168.609375 150.4375 -166.578125 L 133.765625 -112.78125 L 149.90625 -56.84375 Z M 174.828125 -144.34375 "/></g></g></g><g fill="#ffffff" fill-opacity="1"><g transform="translate(216.269755, 255.342955)"><g><path d="M 31.515625 -45.40625 C 31.515625 -47.34375 31.03125 -48.835938 30.0625 -49.890625 C 29.09375 -50.941406 27.988281 -51.695312 26.75 -52.15625 C 25.507812 -52.613281 24.40625 -52.878906 23.4375 -52.953125 C 22.46875 -53.035156 21.984375 -53.078125 21.984375 -53.078125 L 12.28125 -53.078125 L 12.28125 -38.296875 L 21.984375 -38.296875 C 21.984375 -38.296875 22.46875 -38.335938 23.4375 -38.421875 C 24.40625 -38.503906 25.507812 -38.757812 26.75 -39.1875 C 27.988281 -39.613281 29.09375 -40.3125 30.0625 -41.28125 C 31.03125 -42.25 31.515625 -43.625 31.515625 -45.40625 Z M 43.875 -46.140625 C 43.875 -42.367188 43 -39.378906 41.25 -37.171875 C 39.5 -34.960938 37.382812 -33.34375 34.90625 -32.3125 C 37.488281 -31.457031 39.453125 -30.285156 40.796875 -28.796875 C 42.148438 -27.316406 43.109375 -25.8125 43.671875 -24.28125 C 44.234375 -22.75 44.554688 -21.457031 44.640625 -20.40625 C 44.722656 -19.351562 44.765625 -18.828125 44.765625 -18.828125 C 44.765625 -15.210938 44.128906 -12.25 42.859375 -9.9375 C 41.597656 -7.625 39.984375 -5.789062 38.015625 -4.4375 C 36.046875 -3.09375 34 -2.097656 31.875 -1.453125 C 29.75 -0.804688 27.78125 -0.398438 25.96875 -0.234375 C 24.164062 -0.078125 22.835938 0 21.984375 0 L 12.359375 0 L 12.359375 -11.796875 L 21.984375 -11.796875 C 23.328125 -11.796875 24.804688 -11.96875 26.421875 -12.3125 C 28.035156 -12.664062 29.4375 -13.378906 30.625 -14.453125 C 31.8125 -15.535156 32.40625 -17.101562 32.40625 -19.15625 C 32.40625 -20.65625 32.050781 -21.875 31.34375 -22.8125 C 30.644531 -23.757812 29.785156 -24.472656 28.765625 -24.953125 C 27.742188 -25.441406 26.707031 -25.765625 25.65625 -25.921875 C 24.601562 -26.085938 23.726562 -26.1875 23.03125 -26.21875 C 22.332031 -26.25 21.984375 -26.265625 21.984375 -26.265625 L 0 -26.265625 L 0 -63.90625 C 0 -64.394531 0.296875 -64.640625 0.890625 -64.640625 L 21.984375 -64.640625 C 21.984375 -64.640625 22.503906 -64.609375 23.546875 -64.546875 C 24.597656 -64.492188 25.957031 -64.320312 27.625 -64.03125 C 29.300781 -63.738281 31.066406 -63.226562 32.921875 -62.5 C 34.785156 -61.769531 36.550781 -60.726562 38.21875 -59.375 C 39.882812 -58.03125 41.242188 -56.28125 42.296875 -54.125 C 43.347656 -51.976562 43.875 -49.316406 43.875 -46.140625 Z M 43.875 -46.140625 "/></g></g></g><g fill="#ffffff" fill-opacity="1"><g transform="translate(263.78184, 255.342955)"><g><path d="M 37.171875 -32.15625 C 37.171875 -30.488281 36.585938 -29.0625 35.421875 -27.875 C 34.265625 -26.6875 32.828125 -26.09375 31.109375 -26.09375 C 29.441406 -26.09375 28.015625 -26.6875 26.828125 -27.875 C 25.640625 -29.0625 25.046875 -30.488281 25.046875 -32.15625 C 25.046875 -33.882812 25.640625 -35.335938 26.828125 -36.515625 C 28.015625 -37.703125 29.441406 -38.296875 31.109375 -38.296875 C 32.828125 -38.296875 34.265625 -37.703125 35.421875 -36.515625 C 36.585938 -35.335938 37.171875 -33.882812 37.171875 -32.15625 Z M 62.21875 -32.40625 C 62.21875 -28.363281 61.566406 -24.414062 60.265625 -20.5625 C 58.972656 -16.707031 57.035156 -13.234375 54.453125 -10.140625 C 51.867188 -7.046875 48.632812 -4.582031 44.75 -2.75 C 40.875 -0.914062 36.351562 0 31.1875 0 C 25.957031 0 21.390625 -0.914062 17.484375 -2.75 C 13.585938 -4.582031 10.34375 -7.046875 7.75 -10.140625 C 5.164062 -13.234375 3.226562 -16.707031 1.9375 -20.5625 C 0.644531 -24.414062 0 -28.363281 0 -32.40625 C 0 -36.4375 0.644531 -40.363281 1.9375 -44.1875 C 3.226562 -48.019531 5.164062 -51.46875 7.75 -54.53125 C 10.34375 -57.601562 13.585938 -60.054688 17.484375 -61.890625 C 21.390625 -63.722656 25.957031 -64.640625 31.1875 -64.640625 C 36.351562 -64.640625 40.875 -63.722656 44.75 -61.890625 C 48.632812 -60.054688 51.867188 -57.601562 54.453125 -54.53125 C 57.035156 -51.46875 58.972656 -48.019531 60.265625 -44.1875 C 61.566406 -40.363281 62.21875 -36.4375 62.21875 -32.40625 Z M 50.09375 -32.15625 C 50.09375 -34.789062 49.6875 -37.359375 48.875 -39.859375 C 48.070312 -42.367188 46.890625 -44.632812 45.328125 -46.65625 C 43.765625 -48.675781 41.796875 -50.28125 39.421875 -51.46875 C 37.054688 -52.65625 34.3125 -53.25 31.1875 -53.25 C 28.007812 -53.25 25.234375 -52.65625 22.859375 -51.46875 C 20.492188 -50.28125 18.515625 -48.675781 16.921875 -46.65625 C 15.335938 -44.632812 14.15625 -42.367188 13.375 -39.859375 C 12.59375 -37.359375 12.203125 -34.789062 12.203125 -32.15625 C 12.203125 -29.570312 12.59375 -27.039062 13.375 -24.5625 C 14.15625 -22.082031 15.335938 -19.84375 16.921875 -17.84375 C 18.515625 -15.851562 20.492188 -14.265625 22.859375 -13.078125 C 25.234375 -11.898438 28.007812 -11.3125 31.1875 -11.3125 C 34.3125 -11.3125 37.054688 -11.898438 39.421875 -13.078125 C 41.796875 -14.265625 43.765625 -15.851562 45.328125 -17.84375 C 46.890625 -19.84375 48.070312 -22.082031 48.875 -24.5625 C 49.6875 -27.039062 50.09375 -29.570312 50.09375 -32.15625 Z M 50.09375 -32.15625 "/></g></g></g><g fill="#ffffff" fill-opacity="1"><g transform="translate(329.555371, 255.342955)"><g><path d="M 13.328125 -41.203125 L 25.609375 -41.203125 L 25.609375 -0.734375 C 25.609375 -0.242188 25.285156 0 24.640625 0 L 14.21875 0 C 13.625 0 13.328125 -0.242188 13.328125 -0.734375 Z M 0.890625 -53.5625 C 0.296875 -53.5625 0 -53.804688 0 -54.296875 L 0 -63.90625 C 0 -64.394531 0.296875 -64.640625 0.890625 -64.640625 L 37.96875 -64.640625 C 38.5625 -64.640625 38.859375 -64.394531 38.859375 -63.90625 L 38.859375 -54.296875 C 38.859375 -53.804688 38.5625 -53.5625 37.96875 -53.5625 Z M 0.890625 -53.5625 "/></g></g></g><g fill="#dbdada" fill-opacity="1"><g transform="translate(41.816823, 300.836419)"><g><path d="M 5.59375 0 L 3 0 L 0.328125 -11.71875 L 2.625 -11.71875 L 4.40625 -3.484375 L 4.609375 -3.484375 L 6.703125 -11.71875 L 8.6875 -11.71875 L 10.828125 -3.484375 L 11.03125 -3.484375 L 12.8125 -11.71875 L 15.03125 -11.71875 L 12.359375 0 L 9.765625 0 L 7.703125 -7.5625 L 7.53125 -7.5625 Z M 5.59375 0 "/></g></g></g><g fill="#dbdada" fill-opacity="1"><g transform="translate(57.259844, 300.836419)"><g><path d="M 9.09375 -7.3125 L 9.09375 -11.71875 L 11.40625 -11.71875 L 11.40625 0 L 9.09375 0 L 9.09375 -5.34375 L 3.84375 -5.34375 L 3.84375 0 L 1.53125 0 L 1.53125 -11.71875 L 3.84375 -11.71875 L 3.84375 -7.3125 Z M 9.09375 -7.3125 "/></g></g></g><g fill="#dbdada" fill-opacity="1"><g transform="translate(70.289761, 300.836419)"><g><path d="M 3.84375 -5.140625 L 3.84375 -1.9375 L 9.4375 -1.9375 L 9.4375 0 L 1.53125 0 L 1.53125 -11.71875 L 9.3125 -11.71875 L 9.3125 -9.78125 L 3.84375 -9.78125 L 3.84375 -7.046875 L 8.625 -7.046875 L 8.625 -5.140625 Z M 3.84375 -5.140625 "/></g></g></g><g fill="#dbdada" fill-opacity="1"><g transform="translate(80.465638, 300.836419)"><g><path d="M 1.53125 0 L 1.53125 -11.71875 L 6.234375 -11.71875 C 7.441406 -11.71875 8.351562 -11.4375 8.96875 -10.875 C 9.59375 -10.320312 9.90625 -9.554688 9.90625 -8.578125 C 9.90625 -7.859375 9.722656 -7.269531 9.359375 -6.8125 C 9.003906 -6.363281 8.46875 -6.019531 7.75 -5.78125 L 7.75 -5.609375 C 8.113281 -5.453125 8.410156 -5.210938 8.640625 -4.890625 C 8.867188 -4.578125 9.082031 -4.113281 9.28125 -3.5 L 10.453125 0 L 8.078125 0 L 6.921875 -3.5 C 6.804688 -3.851562 6.675781 -4.128906 6.53125 -4.328125 C 6.382812 -4.523438 6.195312 -4.664062 5.96875 -4.75 C 5.738281 -4.84375 5.441406 -4.890625 5.078125 -4.890625 L 3.84375 -4.890625 L 3.84375 0 Z M 5.953125 -6.71875 C 7.078125 -6.71875 7.640625 -7.242188 7.640625 -8.296875 C 7.640625 -9.359375 7.078125 -9.890625 5.953125 -9.890625 L 3.84375 -9.890625 L 3.84375 -6.71875 Z M 5.953125 -6.71875 "/></g></g></g><g fill="#dbdada" fill-opacity="1"><g transform="translate(91.523382, 300.836419)"><g><path d="M 3.84375 -5.140625 L 3.84375 -1.9375 L 9.4375 -1.9375 L 9.4375 0 L 1.53125 0 L 1.53125 -11.71875 L 9.3125 -11.71875 L 9.3125 -9.78125 L 3.84375 -9.78125 L 3.84375 -7.046875 L 8.625 -7.046875 L 8.625 -5.140625 Z M 3.84375 -5.140625 "/></g></g></g><g fill="#dbdada" fill-opacity="1"><g transform="translate(101.699263, 300.836419)"><g/></g></g><g fill="#dbdada" fill-opacity="1"><g transform="translate(105.670014, 300.836419)"><g><path d="M 3.640625 0 L 1.53125 0 L 1.53125 -11.71875 L 4.546875 -11.71875 L 7.515625 -3.109375 L 7.6875 -3.109375 L 10.640625 -11.71875 L 13.59375 -11.71875 L 13.59375 0 L 11.40625 0 L 11.40625 -7.75 L 11.203125 -7.78125 L 8.484375 0 L 6.5625 0 L 3.84375 -7.78125 L 3.640625 -7.75 Z M 3.640625 0 "/></g></g></g><g fill="#dbdada" fill-opacity="1"><g transform="translate(120.904598, 300.836419)"><g><path d="M 3.84375 -5.140625 L 3.84375 -1.9375 L 9.4375 -1.9375 L 9.4375 0 L 1.53125 0 L 1.53125 -11.71875 L 9.3125 -11.71875 L 9.3125 -9.78125 L 3.84375 -9.78125 L 3.84375 -7.046875 L 8.625 -7.046875 L 8.625 -5.140625 Z M 3.84375 -5.140625 "/></g></g></g><g fill="#dbdada" fill-opacity="1"><g transform="translate(131.080479, 300.836419)"><g><path d="M 5.203125 0.171875 C 4.390625 0.171875 3.664062 0.0703125 3.03125 -0.125 C 2.394531 -0.332031 1.863281 -0.597656 1.4375 -0.921875 C 1.019531 -1.242188 0.695312 -1.601562 0.46875 -2 L 1.75 -3.546875 L 1.953125 -3.546875 C 2.304688 -3.023438 2.753906 -2.609375 3.296875 -2.296875 C 3.835938 -1.992188 4.472656 -1.84375 5.203125 -1.84375 C 5.816406 -1.84375 6.28125 -1.972656 6.59375 -2.234375 C 6.914062 -2.492188 7.078125 -2.851562 7.078125 -3.3125 C 7.078125 -3.59375 7.023438 -3.828125 6.921875 -4.015625 C 6.816406 -4.203125 6.644531 -4.359375 6.40625 -4.484375 C 6.175781 -4.617188 5.859375 -4.734375 5.453125 -4.828125 L 3.953125 -5.1875 C 2.898438 -5.425781 2.113281 -5.820312 1.59375 -6.375 C 1.082031 -6.9375 0.828125 -7.664062 0.828125 -8.5625 C 0.828125 -9.21875 0.988281 -9.796875 1.3125 -10.296875 C 1.644531 -10.804688 2.128906 -11.195312 2.765625 -11.46875 C 3.398438 -11.75 4.160156 -11.890625 5.046875 -11.890625 C 5.953125 -11.890625 6.722656 -11.769531 7.359375 -11.53125 C 8.003906 -11.289062 8.550781 -10.925781 9 -10.4375 L 7.84375 -8.875 L 7.65625 -8.875 C 7.320312 -9.21875 6.941406 -9.472656 6.515625 -9.640625 C 6.085938 -9.816406 5.597656 -9.90625 5.046875 -9.90625 C 4.410156 -9.90625 3.925781 -9.789062 3.59375 -9.5625 C 3.257812 -9.34375 3.09375 -9.035156 3.09375 -8.640625 C 3.09375 -8.273438 3.207031 -7.984375 3.4375 -7.765625 C 3.675781 -7.546875 4.082031 -7.375 4.65625 -7.25 L 6.1875 -6.921875 C 7.320312 -6.679688 8.144531 -6.273438 8.65625 -5.703125 C 9.175781 -5.128906 9.4375 -4.378906 9.4375 -3.453125 C 9.4375 -2.722656 9.273438 -2.085938 8.953125 -1.546875 C 8.640625 -1.003906 8.164062 -0.582031 7.53125 -0.28125 C 6.894531 0.0195312 6.117188 0.171875 5.203125 0.171875 Z M 5.203125 0.171875 "/></g></g></g><g fill="#dbdada" fill-opacity="1"><g transform="translate(141.248342, 300.836419)"><g><path d="M 5.203125 0.171875 C 4.390625 0.171875 3.664062 0.0703125 3.03125 -0.125 C 2.394531 -0.332031 1.863281 -0.597656 1.4375 -0.921875 C 1.019531 -1.242188 0.695312 -1.601562 0.46875 -2 L 1.75 -3.546875 L 1.953125 -3.546875 C 2.304688 -3.023438 2.753906 -2.609375 3.296875 -2.296875 C 3.835938 -1.992188 4.472656 -1.84375 5.203125 -1.84375 C 5.816406 -1.84375 6.28125 -1.972656 6.59375 -2.234375 C 6.914062 -2.492188 7.078125 -2.851562 7.078125 -3.3125 C 7.078125 -3.59375 7.023438 -3.828125 6.921875 -4.015625 C 6.816406 -4.203125 6.644531 -4.359375 6.40625 -4.484375 C 6.175781 -4.617188 5.859375 -4.734375 5.453125 -4.828125 L 3.953125 -5.1875 C 2.898438 -5.425781 2.113281 -5.820312 1.59375 -6.375 C 1.082031 -6.9375 0.828125 -7.664062 0.828125 -8.5625 C 0.828125 -9.21875 0.988281 -9.796875 1.3125 -10.296875 C 1.644531 -10.804688 2.128906 -11.195312 2.765625 -11.46875 C 3.398438 -11.75 4.160156 -11.890625 5.046875 -11.890625 C 5.953125 -11.890625 6.722656 -11.769531 7.359375 -11.53125 C 8.003906 -11.289062 8.550781 -10.925781 9 -10.4375 L 7.84375 -8.875 L 7.65625 -8.875 C 7.320312 -9.21875 6.941406 -9.472656 6.515625 -9.640625 C 6.085938 -9.816406 5.597656 -9.90625 5.046875 -9.90625 C 4.410156 -9.90625 3.925781 -9.789062 3.59375 -9.5625 C 3.257812 -9.34375 3.09375 -9.035156 3.09375 -8.640625 C 3.09375 -8.273438 3.207031 -7.984375 3.4375 -7.765625 C 3.675781 -7.546875 4.082031 -7.375 4.65625 -7.25 L 6.1875 -6.921875 C 7.320312 -6.679688 8.144531 -6.273438 8.65625 -5.703125 C 9.175781 -5.128906 9.4375 -4.378906 9.4375 -3.453125 C 9.4375 -2.722656 9.273438 -2.085938 8.953125 -1.546875 C 8.640625 -1.003906 8.164062 -0.582031 7.53125 -0.28125 C 6.894531 0.0195312 6.117188 0.171875 5.203125 0.171875 Z M 5.203125 0.171875 "/></g></g></g><g fill="#dbdada" fill-opacity="1"><g transform="translate(151.416206, 300.836419)"><g><path d="M 11.25 0 L 8.8125 0 L 7.9375 -2.703125 L 3.4375 -2.703125 L 2.5625 0 L 0.171875 0 L 4.21875 -11.71875 L 7.203125 -11.71875 Z M 5.578125 -9.28125 L 4.0625 -4.65625 L 7.28125 -4.65625 L 5.765625 -9.28125 Z M 5.578125 -9.28125 "/></g></g></g><g fill="#dbdada" fill-opacity="1"><g transform="translate(162.938936, 300.836419)"><g><path d="M 5.6875 0.171875 C 4.707031 0.171875 3.859375 -0.0507812 3.140625 -0.5 C 2.429688 -0.945312 1.882812 -1.617188 1.5 -2.515625 C 1.113281 -3.421875 0.921875 -4.535156 0.921875 -5.859375 C 0.921875 -7.191406 1.148438 -8.304688 1.609375 -9.203125 C 2.078125 -10.109375 2.722656 -10.78125 3.546875 -11.21875 C 4.378906 -11.664062 5.34375 -11.890625 6.4375 -11.890625 C 7.550781 -11.890625 8.503906 -11.679688 9.296875 -11.265625 C 10.085938 -10.847656 10.644531 -10.226562 10.96875 -9.40625 L 9.28125 -8.375 L 9.078125 -8.390625 C 8.835938 -8.910156 8.5 -9.289062 8.0625 -9.53125 C 7.625 -9.769531 7.082031 -9.890625 6.4375 -9.890625 C 5.425781 -9.890625 4.648438 -9.570312 4.109375 -8.9375 C 3.578125 -8.300781 3.3125 -7.273438 3.3125 -5.859375 C 3.3125 -4.441406 3.5625 -3.410156 4.0625 -2.765625 C 4.5625 -2.128906 5.300781 -1.8125 6.28125 -1.8125 C 7.125 -1.8125 7.742188 -2 8.140625 -2.375 C 8.546875 -2.757812 8.75 -3.328125 8.75 -4.078125 L 8.75 -4.59375 L 5.96875 -4.59375 L 5.96875 -6.46875 L 11.046875 -6.46875 L 11.046875 0 L 8.84375 0 L 8.84375 -1.578125 L 8.671875 -1.59375 C 8.429688 -1.03125 8.066406 -0.59375 7.578125 -0.28125 C 7.085938 0.0195312 6.457031 0.171875 5.6875 0.171875 Z M 5.6875 0.171875 "/></g></g></g><g fill="#dbdada" fill-opacity="1"><g transform="translate(175.263363, 300.836419)"><g><path d="M 3.84375 0 L 1.53125 0 L 1.53125 -11.71875 L 3.84375 -11.71875 Z M 3.84375 0 "/></g></g></g><g fill="#dbdada" fill-opacity="1"><g transform="translate(180.733286, 300.836419)"><g><path d="M 3.765625 0 L 1.53125 0 L 1.53125 -11.71875 L 4.171875 -11.71875 L 8.890625 -4.171875 L 9.09375 -4.203125 L 9.09375 -11.71875 L 11.328125 -11.71875 L 11.328125 0 L 8.953125 0 L 3.96875 -8.0625 L 3.765625 -8.03125 Z M 3.765625 0 "/></g></g></g><g fill="#dbdada" fill-opacity="1"><g transform="translate(193.691053, 300.836419)"><g><path d="M 5.6875 0.171875 C 4.707031 0.171875 3.859375 -0.0507812 3.140625 -0.5 C 2.429688 -0.945312 1.882812 -1.617188 1.5 -2.515625 C 1.113281 -3.421875 0.921875 -4.535156 0.921875 -5.859375 C 0.921875 -7.191406 1.148438 -8.304688 1.609375 -9.203125 C 2.078125 -10.109375 2.722656 -10.78125 3.546875 -11.21875 C 4.378906 -11.664062 5.34375 -11.890625 6.4375 -11.890625 C 7.550781 -11.890625 8.503906 -11.679688 9.296875 -11.265625 C 10.085938 -10.847656 10.644531 -10.226562 10.96875 -9.40625 L 9.28125 -8.375 L 9.078125 -8.390625 C 8.835938 -8.910156 8.5 -9.289062 8.0625 -9.53125 C 7.625 -9.769531 7.082031 -9.890625 6.4375 -9.890625 C 5.425781 -9.890625 4.648438 -9.570312 4.109375 -8.9375 C 3.578125 -8.300781 3.3125 -7.273438 3.3125 -5.859375 C 3.3125 -4.441406 3.5625 -3.410156 4.0625 -2.765625 C 4.5625 -2.128906 5.300781 -1.8125 6.28125 -1.8125 C 7.125 -1.8125 7.742188 -2 8.140625 -2.375 C 8.546875 -2.757812 8.75 -3.328125 8.75 -4.078125 L 8.75 -4.59375 L 5.96875 -4.59375 L 5.96875 -6.46875 L 11.046875 -6.46875 L 11.046875 0 L 8.84375 0 L 8.84375 -1.578125 L 8.671875 -1.59375 C 8.429688 -1.03125 8.066406 -0.59375 7.578125 -0.28125 C 7.085938 0.0195312 6.457031 0.171875 5.6875 0.171875 Z M 5.6875 0.171875 "/></g></g></g><g fill="#dbdada" fill-opacity="1"><g transform="translate(206.015479, 300.836419)"><g/></g></g><g fill="#dbdada" fill-opacity="1"><g transform="translate(209.986231, 300.836419)"><g><path d="M 3.640625 0 L 1.53125 0 L 1.53125 -11.71875 L 4.546875 -11.71875 L 7.515625 -3.109375 L 7.6875 -3.109375 L 10.640625 -11.71875 L 13.59375 -11.71875 L 13.59375 0 L 11.40625 0 L 11.40625 -7.75 L 11.203125 -7.78125 L 8.484375 0 L 6.5625 0 L 3.84375 -7.78125 L 3.640625 -7.75 Z M 3.640625 0 "/></g></g></g><g fill="#dbdada" fill-opacity="1"><g transform="translate(225.220814, 300.836419)"><g><path d="M 3.84375 -5.140625 L 3.84375 -1.9375 L 9.4375 -1.9375 L 9.4375 0 L 1.53125 0 L 1.53125 -11.71875 L 9.3125 -11.71875 L 9.3125 -9.78125 L 3.84375 -9.78125 L 3.84375 -7.046875 L 8.625 -7.046875 L 8.625 -5.140625 Z M 3.84375 -5.140625 "/></g></g></g><g fill="#dbdada" fill-opacity="1"><g transform="translate(235.396695, 300.836419)"><g><path d="M 3.84375 -5.140625 L 3.84375 -1.9375 L 9.4375 -1.9375 L 9.4375 0 L 1.53125 0 L 1.53125 -11.71875 L 9.3125 -11.71875 L 9.3125 -9.78125 L 3.84375 -9.78125 L 3.84375 -7.046875 L 8.625 -7.046875 L 8.625 -5.140625 Z M 3.84375 -5.140625 "/></g></g></g><g fill="#dbdada" fill-opacity="1"><g transform="translate(245.572576, 300.836419)"><g><path d="M 9.390625 -11.71875 L 9.390625 -9.78125 L 6.015625 -9.78125 L 6.015625 0 L 3.703125 0 L 3.703125 -9.78125 L 0.328125 -9.78125 L 0.328125 -11.71875 Z M 9.390625 -11.71875 "/></g></g></g><g fill="#dbdada" fill-opacity="1"><g transform="translate(255.387682, 300.836419)"><g><path d="M 5.203125 0.171875 C 4.390625 0.171875 3.664062 0.0703125 3.03125 -0.125 C 2.394531 -0.332031 1.863281 -0.597656 1.4375 -0.921875 C 1.019531 -1.242188 0.695312 -1.601562 0.46875 -2 L 1.75 -3.546875 L 1.953125 -3.546875 C 2.304688 -3.023438 2.753906 -2.609375 3.296875 -2.296875 C 3.835938 -1.992188 4.472656 -1.84375 5.203125 -1.84375 C 5.816406 -1.84375 6.28125 -1.972656 6.59375 -2.234375 C 6.914062 -2.492188 7.078125 -2.851562 7.078125 -3.3125 C 7.078125 -3.59375 7.023438 -3.828125 6.921875 -4.015625 C 6.816406 -4.203125 6.644531 -4.359375 6.40625 -4.484375 C 6.175781 -4.617188 5.859375 -4.734375 5.453125 -4.828125 L 3.953125 -5.1875 C 2.898438 -5.425781 2.113281 -5.820312 1.59375 -6.375 C 1.082031 -6.9375 0.828125 -7.664062 0.828125 -8.5625 C 0.828125 -9.21875 0.988281 -9.796875 1.3125 -10.296875 C 1.644531 -10.804688 2.128906 -11.195312 2.765625 -11.46875 C 3.398438 -11.75 4.160156 -11.890625 5.046875 -11.890625 C 5.953125 -11.890625 6.722656 -11.769531 7.359375 -11.53125 C 8.003906 -11.289062 8.550781 -10.925781 9 -10.4375 L 7.84375 -8.875 L 7.65625 -8.875 C 7.320312 -9.21875 6.941406 -9.472656 6.515625 -9.640625 C 6.085938 -9.816406 5.597656 -9.90625 5.046875 -9.90625 C 4.410156 -9.90625 3.925781 -9.789062 3.59375 -9.5625 C 3.257812 -9.34375 3.09375 -9.035156 3.09375 -8.640625 C 3.09375 -8.273438 3.207031 -7.984375 3.4375 -7.765625 C 3.675781 -7.546875 4.082031 -7.375 4.65625 -7.25 L 6.1875 -6.921875 C 7.320312 -6.679688 8.144531 -6.273438 8.65625 -5.703125 C 9.175781 -5.128906 9.4375 -4.378906 9.4375 -3.453125 C 9.4375 -2.722656 9.273438 -2.085938 8.953125 -1.546875 C 8.640625 -1.003906 8.164062 -0.582031 7.53125 -0.28125 C 6.894531 0.0195312 6.117188 0.171875 5.203125 0.171875 Z M 5.203125 0.171875 "/></g></g></g><g fill="#dbdada" fill-opacity="1"><g transform="translate(265.555534, 300.836419)"><g/></g></g><g fill="#dbdada" fill-opacity="1"><g transform="translate(269.526286, 300.836419)"><g><path d="M 5.203125 0.171875 C 4.390625 0.171875 3.664062 0.0703125 3.03125 -0.125 C 2.394531 -0.332031 1.863281 -0.597656 1.4375 -0.921875 C 1.019531 -1.242188 0.695312 -1.601562 0.46875 -2 L 1.75 -3.546875 L 1.953125 -3.546875 C 2.304688 -3.023438 2.753906 -2.609375 3.296875 -2.296875 C 3.835938 -1.992188 4.472656 -1.84375 5.203125 -1.84375 C 5.816406 -1.84375 6.28125 -1.972656 6.59375 -2.234375 C 6.914062 -2.492188 7.078125 -2.851562 7.078125 -3.3125 C 7.078125 -3.59375 7.023438 -3.828125 6.921875 -4.015625 C 6.816406 -4.203125 6.644531 -4.359375 6.40625 -4.484375 C 6.175781 -4.617188 5.859375 -4.734375 5.453125 -4.828125 L 3.953125 -5.1875 C 2.898438 -5.425781 2.113281 -5.820312 1.59375 -6.375 C 1.082031 -6.9375 0.828125 -7.664062 0.828125 -8.5625 C 0.828125 -9.21875 0.988281 -9.796875 1.3125 -10.296875 C 1.644531 -10.804688 2.128906 -11.195312 2.765625 -11.46875 C 3.398438 -11.75 4.160156 -11.890625 5.046875 -11.890625 C 5.953125 -11.890625 6.722656 -11.769531 7.359375 -11.53125 C 8.003906 -11.289062 8.550781 -10.925781 9 -10.4375 L 7.84375 -8.875 L 7.65625 -8.875 C 7.320312 -9.21875 6.941406 -9.472656 6.515625 -9.640625 C 6.085938 -9.816406 5.597656 -9.90625 5.046875 -9.90625 C 4.410156 -9.90625 3.925781 -9.789062 3.59375 -9.5625 C 3.257812 -9.34375 3.09375 -9.035156 3.09375 -8.640625 C 3.09375 -8.273438 3.207031 -7.984375 3.4375 -7.765625 C 3.675781 -7.546875 4.082031 -7.375 4.65625 -7.25 L 6.1875 -6.921875 C 7.320312 -6.679688 8.144531 -6.273438 8.65625 -5.703125 C 9.175781 -5.128906 9.4375 -4.378906 9.4375 -3.453125 C 9.4375 -2.722656 9.273438 -2.085938 8.953125 -1.546875 C 8.640625 -1.003906 8.164062 -0.582031 7.53125 -0.28125 C 6.894531 0.0195312 6.117188 0.171875 5.203125 0.171875 Z M 5.203125 0.171875 "/></g></g></g><g fill="#dbdada" fill-opacity="1"><g transform="translate(279.694139, 300.836419)"><g><path d="M 6.21875 0.171875 C 4.601562 0.171875 3.40625 -0.210938 2.625 -0.984375 C 1.84375 -1.753906 1.453125 -2.890625 1.453125 -4.390625 L 1.453125 -11.71875 L 3.71875 -11.71875 L 3.71875 -4.40625 C 3.71875 -3.550781 3.921875 -2.910156 4.328125 -2.484375 C 4.742188 -2.054688 5.375 -1.84375 6.21875 -1.84375 C 7.875 -1.84375 8.703125 -2.695312 8.703125 -4.40625 L 8.703125 -11.71875 L 10.984375 -11.71875 L 10.984375 -4.390625 C 10.984375 -2.890625 10.59375 -1.753906 9.8125 -0.984375 C 9.03125 -0.210938 7.832031 0.171875 6.21875 0.171875 Z M 6.21875 0.171875 "/></g></g></g><g fill="#dbdada" fill-opacity="1"><g transform="translate(292.218979, 300.836419)"><g><path d="M 6.40625 0.171875 C 5.320312 0.171875 4.367188 -0.0507812 3.546875 -0.5 C 2.722656 -0.945312 2.078125 -1.617188 1.609375 -2.515625 C 1.148438 -3.421875 0.921875 -4.535156 0.921875 -5.859375 C 0.921875 -7.179688 1.148438 -8.289062 1.609375 -9.1875 C 2.078125 -10.09375 2.722656 -10.769531 3.546875 -11.21875 C 4.367188 -11.664062 5.320312 -11.890625 6.40625 -11.890625 C 7.53125 -11.890625 8.488281 -11.664062 9.28125 -11.21875 C 10.070312 -10.78125 10.632812 -10.113281 10.96875 -9.21875 L 9.28125 -8.171875 L 9.078125 -8.1875 C 8.828125 -8.789062 8.484375 -9.222656 8.046875 -9.484375 C 7.617188 -9.753906 7.070312 -9.890625 6.40625 -9.890625 C 5.4375 -9.890625 4.675781 -9.566406 4.125 -8.921875 C 3.582031 -8.285156 3.3125 -7.265625 3.3125 -5.859375 C 3.3125 -4.460938 3.582031 -3.441406 4.125 -2.796875 C 4.675781 -2.160156 5.4375 -1.84375 6.40625 -1.84375 C 7.925781 -1.84375 8.859375 -2.582031 9.203125 -4.0625 L 9.40625 -4.0625 L 11.109375 -3.171875 C 10.785156 -2.054688 10.238281 -1.21875 9.46875 -0.65625 C 8.695312 -0.101562 7.675781 0.171875 6.40625 0.171875 Z M 6.40625 0.171875 "/></g></g></g><g fill="#dbdada" fill-opacity="1"><g transform="translate(303.81385, 300.836419)"><g><path d="M 6.40625 0.171875 C 5.320312 0.171875 4.367188 -0.0507812 3.546875 -0.5 C 2.722656 -0.945312 2.078125 -1.617188 1.609375 -2.515625 C 1.148438 -3.421875 0.921875 -4.535156 0.921875 -5.859375 C 0.921875 -7.179688 1.148438 -8.289062 1.609375 -9.1875 C 2.078125 -10.09375 2.722656 -10.769531 3.546875 -11.21875 C 4.367188 -11.664062 5.320312 -11.890625 6.40625 -11.890625 C 7.53125 -11.890625 8.488281 -11.664062 9.28125 -11.21875 C 10.070312 -10.78125 10.632812 -10.113281 10.96875 -9.21875 L 9.28125 -8.171875 L 9.078125 -8.1875 C 8.828125 -8.789062 8.484375 -9.222656 8.046875 -9.484375 C 7.617188 -9.753906 7.070312 -9.890625 6.40625 -9.890625 C 5.4375 -9.890625 4.675781 -9.566406 4.125 -8.921875 C 3.582031 -8.285156 3.3125 -7.265625 3.3125 -5.859375 C 3.3125 -4.460938 3.582031 -3.441406 4.125 -2.796875 C 4.675781 -2.160156 5.4375 -1.84375 6.40625 -1.84375 C 7.925781 -1.84375 8.859375 -2.582031 9.203125 -4.0625 L 9.40625 -4.0625 L 11.109375 -3.171875 C 10.785156 -2.054688 10.238281 -1.21875 9.46875 -0.65625 C 8.695312 -0.101562 7.675781 0.171875 6.40625 0.171875 Z M 6.40625 0.171875 "/></g></g></g><g fill="#dbdada" fill-opacity="1"><g transform="translate(315.408722, 300.836419)"><g><path d="M 3.84375 -5.140625 L 3.84375 -1.9375 L 9.4375 -1.9375 L 9.4375 0 L 1.53125 0 L 1.53125 -11.71875 L 9.3125 -11.71875 L 9.3125 -9.78125 L 3.84375 -9.78125 L 3.84375 -7.046875 L 8.625 -7.046875 L 8.625 -5.140625 Z M 3.84375 -5.140625 "/></g></g></g><g fill="#dbdada" fill-opacity="1"><g transform="translate(325.584603, 300.836419)"><g><path d="M 5.203125 0.171875 C 4.390625 0.171875 3.664062 0.0703125 3.03125 -0.125 C 2.394531 -0.332031 1.863281 -0.597656 1.4375 -0.921875 C 1.019531 -1.242188 0.695312 -1.601562 0.46875 -2 L 1.75 -3.546875 L 1.953125 -3.546875 C 2.304688 -3.023438 2.753906 -2.609375 3.296875 -2.296875 C 3.835938 -1.992188 4.472656 -1.84375 5.203125 -1.84375 C 5.816406 -1.84375 6.28125 -1.972656 6.59375 -2.234375 C 6.914062 -2.492188 7.078125 -2.851562 7.078125 -3.3125 C 7.078125 -3.59375 7.023438 -3.828125 6.921875 -4.015625 C 6.816406 -4.203125 6.644531 -4.359375 6.40625 -4.484375 C 6.175781 -4.617188 5.859375 -4.734375 5.453125 -4.828125 L 3.953125 -5.1875 C 2.898438 -5.425781 2.113281 -5.820312 1.59375 -6.375 C 1.082031 -6.9375 0.828125 -7.664062 0.828125 -8.5625 C 0.828125 -9.21875 0.988281 -9.796875 1.3125 -10.296875 C 1.644531 -10.804688 2.128906 -11.195312 2.765625 -11.46875 C 3.398438 -11.75 4.160156 -11.890625 5.046875 -11.890625 C 5.953125 -11.890625 6.722656 -11.769531 7.359375 -11.53125 C 8.003906 -11.289062 8.550781 -10.925781 9 -10.4375 L 7.84375 -8.875 L 7.65625 -8.875 C 7.320312 -9.21875 6.941406 -9.472656 6.515625 -9.640625 C 6.085938 -9.816406 5.597656 -9.90625 5.046875 -9.90625 C 4.410156 -9.90625 3.925781 -9.789062 3.59375 -9.5625 C 3.257812 -9.34375 3.09375 -9.035156 3.09375 -8.640625 C 3.09375 -8.273438 3.207031 -7.984375 3.4375 -7.765625 C 3.675781 -7.546875 4.082031 -7.375 4.65625 -7.25 L 6.1875 -6.921875 C 7.320312 -6.679688 8.144531 -6.273438 8.65625 -5.703125 C 9.175781 -5.128906 9.4375 -4.378906 9.4375 -3.453125 C 9.4375 -2.722656 9.273438 -2.085938 8.953125 -1.546875 C 8.640625 -1.003906 8.164062 -0.582031 7.53125 -0.28125 C 6.894531 0.0195312 6.117188 0.171875 5.203125 0.171875 Z M 5.203125 0.171875 "/></g></g></g><g fill="#dbdada" fill-opacity="1"><g transform="translate(335.752455, 300.836419)"><g><path d="M 5.203125 0.171875 C 4.390625 0.171875 3.664062 0.0703125 3.03125 -0.125 C 2.394531 -0.332031 1.863281 -0.597656 1.4375 -0.921875 C 1.019531 -1.242188 0.695312 -1.601562 0.46875 -2 L 1.75 -3.546875 L 1.953125 -3.546875 C 2.304688 -3.023438 2.753906 -2.609375 3.296875 -2.296875 C 3.835938 -1.992188 4.472656 -1.84375 5.203125 -1.84375 C 5.816406 -1.84375 6.28125 -1.972656 6.59375 -2.234375 C 6.914062 -2.492188 7.078125 -2.851562 7.078125 -3.3125 C 7.078125 -3.59375 7.023438 -3.828125 6.921875 -4.015625 C 6.816406 -4.203125 6.644531 -4.359375 6.40625 -4.484375 C 6.175781 -4.617188 5.859375 -4.734375 5.453125 -4.828125 L 3.953125 -5.1875 C 2.898438 -5.425781 2.113281 -5.820312 1.59375 -6.375 C 1.082031 -6.9375 0.828125 -7.664062 0.828125 -8.5625 C 0.828125 -9.21875 0.988281 -9.796875 1.3125 -10.296875 C 1.644531 -10.804688 2.128906 -11.195312 2.765625 -11.46875 C 3.398438 -11.75 4.160156 -11.890625 5.046875 -11.890625 C 5.953125 -11.890625 6.722656 -11.769531 7.359375 -11.53125 C 8.003906 -11.289062 8.550781 -10.925781 9 -10.4375 L 7.84375 -8.875 L 7.65625 -8.875 C 7.320312 -9.21875 6.941406 -9.472656 6.515625 -9.640625 C 6.085938 -9.816406 5.597656 -9.90625 5.046875 -9.90625 C 4.410156 -9.90625 3.925781 -9.789062 3.59375 -9.5625 C 3.257812 -9.34375 3.09375 -9.035156 3.09375 -8.640625 C 3.09375 -8.273438 3.207031 -7.984375 3.4375 -7.765625 C 3.675781 -7.546875 4.082031 -7.375 4.65625 -7.25 L 6.1875 -6.921875 C 7.320312 -6.679688 8.144531 -6.273438 8.65625 -5.703125 C 9.175781 -5.128906 9.4375 -4.378906 9.4375 -3.453125 C 9.4375 -2.722656 9.273438 -2.085938 8.953125 -1.546875 C 8.640625 -1.003906 8.164062 -0.582031 7.53125 -0.28125 C 6.894531 0.0195312 6.117188 0.171875 5.203125 0.171875 Z M 5.203125 0.171875 "/></g></g></g></svg>