<?xml version="1.0" standalone="no"?>
<!DOCTYPE svg PUBLIC "-//W3C//DTD SVG 20010904//EN"
 "http://www.w3.org/TR/2001/REC-SVG-20010904/DTD/svg10.dtd">
<svg version="1.0" xmlns="http://www.w3.org/2000/svg"
 width="600.000000pt" height="600.000000pt" viewBox="0 0 600.000000 600.000000"
 preserveAspectRatio="xMidYMid meet">

<g transform="translate(0.000000,600.000000) scale(0.100000,-0.100000)"
fill="#000000" stroke="none">
<path d="M4127 3474 c-34 -87 -42 -114 -29 -108 22 11 130 11 159 1 20 -7 18
1 -25 108 -25 63 -48 115 -52 115 -4 0 -27 -52 -53 -116z"/>
<path d="M2155 3292 l-41 -127 83 0 c52 0 82 3 80 10 -2 5 -19 60 -37 120 -18
61 -35 113 -39 117 -3 4 -24 -50 -46 -120z"/>
<path d="M1661 3143 c5 -16 12 -35 15 -43 4 -10 10 -4 19 20 19 49 18 50 -15
50 -28 0 -29 -1 -19 -27z"/>
<path d="M2693 3163 c3 -5 10 -28 17 -53 13 -48 19 -44 34 28 7 31 6 32 -24
32 -17 0 -29 -3 -27 -7z"/>
<path d="M3997 3150 c-3 -13 0 -20 9 -20 15 0 19 26 5 34 -5 3 -11 -3 -14 -14z"/>
<path d="M4337 3150 c-4 -15 0 -20 13 -20 13 0 17 5 13 20 -3 11 -9 20 -13 20
-4 0 -10 -9 -13 -20z"/>
<path d="M3850 2779 c-17 -32 -7 -33 47 -5 l48 25 -42 1 c-33 0 -45 -5 -53
-21z"/>
<path d="M4465 2772 c52 -29 64 -27 45 7 -8 16 -20 21 -53 21 l-42 0 50 -28z"/>
<path d="M1780 2169 c0 -10 13 -14 44 -14 51 0 47 13 -7 22 -28 4 -37 2 -37
-8z"/>
<path d="M4430 2164 c0 -12 4 -14 13 -7 6 6 19 13 27 16 9 3 3 6 -12 6 -20 1
-28 -4 -28 -15z"/>
<path d="M1458 2163 c7 -3 16 -2 19 1 4 3 -2 6 -13 5 -11 0 -14 -3 -6 -6z"/>
<path d="M2989 2153 c-13 -17 -13 -17 6 -3 11 8 22 16 24 17 2 2 0 3 -6 3 -6
0 -17 -8 -24 -17z"/>
<path d="M4800 2166 c0 -2 7 -9 15 -16 12 -10 15 -10 15 4 0 9 -7 16 -15 16
-8 0 -15 -2 -15 -4z"/>
<path d="M4950 2154 c0 -14 3 -14 15 -4 8 7 15 14 15 16 0 2 -7 4 -15 4 -8 0
-15 -7 -15 -16z"/>
<path d="M4021 2077 c-14 -37 -14 -36 9 -30 22 6 23 8 10 38 -7 19 -9 18 -19
-8z"/>
<path d="M3361 2008 c-1 -38 2 -46 14 -42 18 7 18 8 0 54 l-13 35 -1 -47z"/>
<path d="M3626 2016 c-3 -13 -8 -30 -11 -38 -3 -9 2 -14 14 -15 17 -1 19 3 14
35 -7 47 -9 49 -17 18z"/>
<path d="M2210 1996 c0 -28 4 -34 18 -33 17 1 18 5 9 34 -13 43 -27 42 -27 -1z"/>
<path d="M2473 1997 c-9 -29 -8 -33 9 -34 12 -1 18 5 18 20 0 41 -16 50 -27
14z"/>
<path d="M1780 1921 c0 -24 4 -29 24 -27 l24 1 -20 28 c-24 34 -28 34 -28 -2z"/>
<path d="M4430 1922 c0 -25 4 -30 20 -29 11 1 20 3 20 5 0 2 -9 15 -20 29
l-20 26 0 -31z"/>
<path d="M3940 1861 c0 -5 9 -7 20 -4 11 3 20 7 20 9 0 2 -9 4 -20 4 -11 0
-20 -4 -20 -9z"/>
<path d="M4100 1860 c20 -13 33 -13 25 0 -3 6 -14 10 -23 10 -15 0 -15 -2 -2
-10z"/>
</g>
</svg>
